<svg width="39" height="39" viewBox="0 0 39 39" fill="none" xmlns="http://www.w3.org/2000/svg">
<rect x="0.5" y="0.5" width="2" height="2" fill="black" stroke="black"/>
<rect x="0.5" y="3.5" width="2" height="2" fill="black" stroke="black"/>
<rect x="0.5" y="6.5" width="2" height="2" fill="black" stroke="black"/>
<rect x="0.5" y="9.5" width="2" height="2" fill="black" stroke="black"/>
<rect x="0.5" y="12.5" width="2" height="2" fill="black" stroke="black"/>
<rect x="0.5" y="15.5" width="2" height="2" fill="black" stroke="black"/>
<rect x="0.5" y="18.5" width="2" height="2" fill="black" stroke="black"/>
<rect x="0.5" y="21.5" width="2" height="2" fill="black" stroke="black"/>
<rect x="0.5" y="24.5" width="2" height="2" fill="black" stroke="black"/>
<rect x="0.5" y="27.5" width="2" height="2" fill="black" stroke="black"/>
<rect x="0.5" y="30.5" width="2" height="2" fill="black" stroke="black"/>
<rect x="0.5" y="33.5" width="2" height="2" fill="black" stroke="black"/>
<rect x="0.5" y="36.5" width="2" height="2" fill="black" stroke="black"/>
<rect x="32.5" y="0.5" width="2" height="2" transform="rotate(90 32.5 0.5)" fill="black" stroke="black"/>
<rect x="29.5" y="0.5" width="2" height="2" transform="rotate(90 29.5 0.5)" fill="black" stroke="black"/>
<rect x="26.5" y="0.5" width="2" height="2" transform="rotate(90 26.5 0.5)" fill="black" stroke="black"/>
<rect x="23.5" y="0.5" width="2" height="2" transform="rotate(90 23.5 0.5)" fill="black" stroke="black"/>
<rect x="20.5" y="0.5" width="2" height="2" transform="rotate(90 20.5 0.5)" fill="black" stroke="black"/>
<rect x="17.5" y="0.5" width="2" height="2" transform="rotate(90 17.5 0.5)" fill="black" stroke="black"/>
<rect x="14.5" y="0.5" width="2" height="2" transform="rotate(90 14.5 0.5)" fill="black" stroke="black"/>
<rect x="11.5" y="0.5" width="2" height="2" transform="rotate(90 11.5 0.5)" fill="black" stroke="black"/>
<rect x="8.5" y="0.5" width="2" height="2" transform="rotate(90 8.5 0.5)" fill="black" stroke="black"/>
<rect x="5.5" y="0.5" width="2" height="2" transform="rotate(90 5.5 0.5)" fill="black" stroke="black"/>
<rect x="35.5" y="3.5" width="2" height="2" transform="rotate(90 35.5 3.5)" fill="black" stroke="black"/>
<rect x="8.5" y="6.5" width="2" height="2" transform="rotate(90 8.5 6.5)" fill="black" stroke="black"/>
<rect x="8.5" y="3.5" width="2" height="2" transform="rotate(90 8.5 3.5)" fill="black" stroke="black"/>
<rect x="8.5" y="9.5" width="2" height="2" transform="rotate(90 8.5 9.5)" fill="black" stroke="black"/>
<rect x="29.5" y="6.5" width="2" height="2" transform="rotate(90 29.5 6.5)" fill="black" stroke="black"/>
<rect x="29.5" y="3.5" width="2" height="2" transform="rotate(90 29.5 3.5)" fill="black" stroke="black"/>
<rect x="29.5" y="9.5" width="2" height="2" transform="rotate(90 29.5 9.5)" fill="black" stroke="black"/>
<rect x="23.5" y="6.5" width="2" height="2" transform="rotate(90 23.5 6.5)" fill="black" stroke="black"/>
<rect x="23.5" y="3.5" width="2" height="2" transform="rotate(90 23.5 3.5)" fill="black" stroke="black"/>
<rect x="23.5" y="9.5" width="2" height="2" transform="rotate(90 23.5 9.5)" fill="black" stroke="black"/>
<rect x="29.5" y="12.5" width="2" height="2" transform="rotate(90 29.5 12.5)" fill="black" stroke="black"/>
<rect x="26.5" y="12.5" width="2" height="2" transform="rotate(90 26.5 12.5)" fill="black" stroke="black"/>
<rect x="23.5" y="12.5" width="2" height="2" transform="rotate(90 23.5 12.5)" fill="black" stroke="black"/>
<rect x="20.5" y="12.5" width="2" height="2" transform="rotate(90 20.5 12.5)" fill="black" stroke="black"/>
<rect x="17.5" y="12.5" width="2" height="2" transform="rotate(90 17.5 12.5)" fill="black" stroke="black"/>
<rect x="14.5" y="12.5" width="2" height="2" transform="rotate(90 14.5 12.5)" fill="black" stroke="black"/>
<rect x="11.5" y="12.5" width="2" height="2" transform="rotate(90 11.5 12.5)" fill="black" stroke="black"/>
<rect x="8.5" y="12.5" width="2" height="2" transform="rotate(90 8.5 12.5)" fill="black" stroke="black"/>
<rect x="32.5" y="21.5" width="2" height="2" transform="rotate(90 32.5 21.5)" fill="black" stroke="black"/>
<rect x="29.5" y="21.5" width="2" height="2" transform="rotate(90 29.5 21.5)" fill="black" stroke="black"/>
<rect x="26.5" y="21.5" width="2" height="2" transform="rotate(90 26.5 21.5)" fill="black" stroke="black"/>
<rect x="23.5" y="21.5" width="2" height="2" transform="rotate(90 23.5 21.5)" fill="black" stroke="black"/>
<rect x="20.5" y="21.5" width="2" height="2" transform="rotate(90 20.5 21.5)" fill="black" stroke="black"/>
<rect x="17.5" y="21.5" width="2" height="2" transform="rotate(90 17.5 21.5)" fill="black" stroke="black"/>
<rect x="14.5" y="21.5" width="2" height="2" transform="rotate(90 14.5 21.5)" fill="black" stroke="black"/>
<rect x="11.5" y="21.5" width="2" height="2" transform="rotate(90 11.5 21.5)" fill="black" stroke="black"/>
<rect x="8.5" y="21.5" width="2" height="2" transform="rotate(90 8.5 21.5)" fill="black" stroke="black"/>
<rect x="32.5" y="24.5" width="2" height="2" transform="rotate(90 32.5 24.5)" fill="black" stroke="black"/>
<rect x="8.5" y="24.5" width="2" height="2" transform="rotate(90 8.5 24.5)" fill="black" stroke="black"/>
<rect x="32.5" y="27.5" width="2" height="2" transform="rotate(90 32.5 27.5)" fill="black" stroke="black"/>
<rect x="8.5" y="27.5" width="2" height="2" transform="rotate(90 8.5 27.5)" fill="black" stroke="black"/>
<rect x="32.5" y="30.5" width="2" height="2" transform="rotate(90 32.5 30.5)" fill="black" stroke="black"/>
<rect x="8.5" y="30.5" width="2" height="2" transform="rotate(90 8.5 30.5)" fill="black" stroke="black"/>
<rect x="8.5" y="33.5" width="2" height="2" transform="rotate(90 8.5 33.5)" fill="black" stroke="black"/>
<rect x="32.5" y="33.5" width="2" height="2" transform="rotate(90 32.5 33.5)" fill="black" stroke="black"/>
<rect x="35.5" y="36.5" width="2" height="2" transform="rotate(90 35.5 36.5)" fill="black" stroke="black"/>
<rect x="32.5" y="36.5" width="2" height="2" transform="rotate(90 32.5 36.5)" fill="black" stroke="black"/>
<rect x="29.5" y="36.5" width="2" height="2" transform="rotate(90 29.5 36.5)" fill="black" stroke="black"/>
<rect x="26.5" y="36.5" width="2" height="2" transform="rotate(90 26.5 36.5)" fill="black" stroke="black"/>
<rect x="23.5" y="36.5" width="2" height="2" transform="rotate(90 23.5 36.5)" fill="black" stroke="black"/>
<rect x="20.5" y="36.5" width="2" height="2" transform="rotate(90 20.5 36.5)" fill="black" stroke="black"/>
<rect x="17.5" y="36.5" width="2" height="2" transform="rotate(90 17.5 36.5)" fill="black" stroke="black"/>
<rect x="14.5" y="36.5" width="2" height="2" transform="rotate(90 14.5 36.5)" fill="black" stroke="black"/>
<rect x="11.5" y="36.5" width="2" height="2" transform="rotate(90 11.5 36.5)" fill="black" stroke="black"/>
<rect x="8.5" y="36.5" width="2" height="2" transform="rotate(90 8.5 36.5)" fill="black" stroke="black"/>
<rect x="5.5" y="36.5" width="2" height="2" transform="rotate(90 5.5 36.5)" fill="black" stroke="black"/>
<rect x="38.5" y="38.5" width="2" height="2" transform="rotate(-180 38.5 38.5)" fill="black" stroke="black"/>
<rect x="38.5" y="35.5" width="2" height="2" transform="rotate(-180 38.5 35.5)" fill="black" stroke="black"/>
<rect x="38.5" y="32.5" width="2" height="2" transform="rotate(-180 38.5 32.5)" fill="black" stroke="black"/>
<rect x="38.5" y="29.5" width="2" height="2" transform="rotate(-180 38.5 29.5)" fill="black" stroke="black"/>
<rect x="38.5" y="26.5" width="2" height="2" transform="rotate(-180 38.5 26.5)" fill="black" stroke="black"/>
<rect x="38.5" y="23.5" width="2" height="2" transform="rotate(-180 38.5 23.5)" fill="black" stroke="black"/>
<rect x="38.5" y="20.5" width="2" height="2" transform="rotate(-180 38.5 20.5)" fill="black" stroke="black"/>
<rect x="38.5" y="17.5" width="2" height="2" transform="rotate(-180 38.5 17.5)" fill="black" stroke="black"/>
<rect x="38.5" y="14.5" width="2" height="2" transform="rotate(-180 38.5 14.5)" fill="black" stroke="black"/>
<rect x="38.5" y="11.5" width="2" height="2" transform="rotate(-180 38.5 11.5)" fill="black" stroke="black"/>
<rect x="38.5" y="8.5" width="2" height="2" transform="rotate(-180 38.5 8.5)" fill="black" stroke="black"/>
</svg>
